<svg width="6" height="9" viewBox="0 0 6 9" fill="none" xmlns="http://www.w3.org/2000/svg">
<path id="Vector" d="M5.6772 3.17863C5.6772 3.56124 5.60764 3.87428 5.50329 4.11776L3.62503 8.15255C3.55547 8.25689 3.48591 8.36124 3.38156 8.43081C3.27721 8.50037 3.13808 8.53516 3.03373 8.53516C2.92939 8.53516 2.79026 8.50037 2.68591 8.43081C2.58156 8.36124 2.51199 8.29168 2.44243 8.15255L0.529382 4.11776C0.425034 3.87428 0.355469 3.56124 0.355469 3.17863C0.355469 2.4482 0.633734 1.82211 1.12069 1.30037C1.64243 0.778633 2.26851 0.535156 2.99895 0.535156C3.72938 0.535156 4.35547 0.778633 4.87721 1.30037C5.39895 1.82211 5.6772 2.4482 5.6772 3.17863ZM3.93807 4.11776C4.18155 3.87428 4.32068 3.56124 4.32068 3.17863C4.32068 2.79602 4.18155 2.48298 3.93807 2.2395C3.6946 1.99602 3.34678 1.85689 2.99895 1.85689C2.65112 1.85689 2.30329 1.99602 2.05981 2.2395C1.81634 2.48298 1.6772 2.83081 1.6772 3.17863C1.6772 3.52646 1.81634 3.87428 2.05981 4.11776C2.30329 4.36124 2.65112 4.50037 2.99895 4.50037C3.34678 4.50037 3.6946 4.36124 3.93807 4.11776Z" fill="white"/>
</svg>
