<svg width="8" height="8" viewBox="0 0 8 8" fill="none" xmlns="http://www.w3.org/2000/svg">
<path fill-rule="evenodd" clip-rule="evenodd" d="M1.04608 0.31952C1.25067 0.114935 1.52814 0 1.81747 0H4.56656C4.8516 3.5481e-05 5.12535 0.111632 5.32915 0.310909L6.94365 1.88977C6.94367 1.88979 6.94363 1.88975 6.94365 1.88977C7.04755 1.99135 7.13018 2.11272 7.18655 2.24663C7.24294 2.38058 7.272 2.52444 7.27202 2.66977V6.90909C7.27202 7.19842 7.15708 7.4759 6.9525 7.68048C6.74791 7.88507 6.47044 8 6.18111 8H1.81747C1.52814 8 1.25067 7.88507 1.04608 7.68048C0.841497 7.47589 0.726562 7.19842 0.726562 6.90909V1.09091C0.726562 0.801582 0.841497 0.524105 1.04608 0.31952ZM1.81747 0.727273C1.72103 0.727273 1.62854 0.765584 1.56034 0.833779C1.49215 0.901974 1.45384 0.994467 1.45384 1.09091V6.90909C1.45384 7.00553 1.49215 7.09803 1.56034 7.16622C1.62854 7.23442 1.72103 7.27273 1.81747 7.27273H6.18111C6.27755 7.27273 6.37004 7.23442 6.43824 7.16622C6.50643 7.09803 6.54474 7.00553 6.54474 6.90909V2.90909H5.45384C5.16451 2.90909 4.88703 2.79416 4.68245 2.58957C4.47786 2.38499 4.36293 2.10751 4.36293 1.81818V0.727273H1.81747ZM5.0902 1.09446V1.81818C5.0902 1.91462 5.12851 2.00712 5.19671 2.07531C5.2649 2.14351 5.35739 2.18182 5.45384 2.18182H6.2021L5.0902 1.09446ZM2.54474 4.36364C2.54474 4.16281 2.70755 4 2.90838 4H5.0902C5.29103 4 5.45384 4.16281 5.45384 4.36364C5.45384 4.56447 5.29103 4.72727 5.0902 4.72727H2.90838C2.70755 4.72727 2.54474 4.56447 2.54474 4.36364ZM2.54474 5.81818C2.54474 5.61735 2.70755 5.45455 2.90838 5.45455H3.99929C4.20012 5.45455 4.36293 5.61735 4.36293 5.81818C4.36293 6.01901 4.20012 6.18182 3.99929 6.18182H2.90838C2.70755 6.18182 2.54474 6.01901 2.54474 5.81818Z" fill="white"/>
</svg>
