<svg width="10" height="9" viewBox="0 0 10 9" fill="none" xmlns="http://www.w3.org/2000/svg">
<path d="M8.75743 2.34304C9.14004 3.00391 9.34874 3.73435 9.34874 4.49956C9.34874 5.29956 9.14004 5.99522 8.75743 6.65609C8.37482 7.31696 7.85308 7.8387 7.19221 8.22131C6.53134 8.60392 5.80093 8.81261 5.03571 8.81261C4.23571 8.81261 3.54005 8.60392 2.87918 8.22131C2.21831 7.8387 1.69657 7.31696 1.31396 6.65609C0.931356 5.99522 0.722656 5.26478 0.722656 4.49956C0.722656 3.69956 0.931356 3.00391 1.31396 2.34304C1.69657 1.68217 2.21831 1.16044 2.87918 0.777827C3.54005 0.395218 4.27049 0.186523 5.03571 0.186523C5.83571 0.186523 6.53134 0.395218 7.19221 0.777827C7.8183 1.16044 8.37482 1.68217 8.75743 2.34304ZM8.027 6.2387C8.34005 5.71696 8.47917 5.12565 8.47917 4.49956C8.47917 3.87348 8.34005 3.28217 8.027 2.76043C7.71396 2.2387 7.29658 1.78652 6.77484 1.47348C6.2531 1.16044 5.66179 1.0213 5.03571 1.0213C4.40962 1.0213 3.81832 1.16044 3.29658 1.47348C2.77484 1.78652 2.32266 2.20391 2.00962 2.76043C1.69657 3.28217 1.55745 3.87348 1.55745 4.49956C1.55745 5.12565 1.69657 5.71696 2.00962 6.2387C2.32266 6.76043 2.74006 7.21261 3.29658 7.49087C3.81832 7.80392 4.40962 7.94305 5.03571 7.94305C5.66179 7.94305 6.2531 7.80392 6.77484 7.49087C7.29658 7.21261 7.71396 6.79522 8.027 6.2387ZM5.73136 2.51696V5.0213C5.73136 5.09087 5.73135 5.12566 5.69656 5.16044C5.66178 5.19522 5.62701 5.19522 5.55745 5.19522H3.74875C3.67918 5.19522 3.64439 5.16044 3.60961 5.16044C3.57483 5.12566 3.57483 5.09087 3.57483 5.0213V4.67348C3.57483 4.6387 3.57483 4.56913 3.60961 4.53435C3.64439 4.49957 3.67918 4.49956 3.74875 4.49956H5.00091V2.51696C5.00091 2.44739 5.00093 2.41261 5.03571 2.37783C5.07049 2.34305 5.10526 2.34304 5.17483 2.34304H5.52265C5.59222 2.34304 5.62701 2.34305 5.66179 2.37783C5.69657 2.41261 5.73136 2.48217 5.73136 2.51696Z" fill="white"/>
</svg>
